<?xml version="1.0" encoding="UTF-8" standalone="no"?>
<svg xmlns:dc="http://purl.org/dc/elements/1.1/" xmlns:cc="http://creativecommons.org/ns#" xmlns:rdf="http://www.w3.org/1999/02/22-rdf-syntax-ns#" xmlns:svg="http://www.w3.org/2000/svg" xmlns="http://www.w3.org/2000/svg" xmlns:sodipodi="http://sodipodi.sourceforge.net/DTD/sodipodi-0.dtd" xmlns:inkscape="http://www.inkscape.org/namespaces/inkscape" width="308.74222mm" height="132.68198mm" viewBox="0 0 308.74222 132.68198" version="1.1" id="svg8" inkscape:version="1.0 (4035a4fb49, 2020-05-01)" sodipodi:docname="git-repo-6.svg">
  <defs id="defs2">
    <marker inkscape:isstock="true" style="overflow:visible" id="marker3429" refX="0" refY="0" orient="auto" inkscape:stockid="Arrow2Mend">
      <path transform="scale(-0.6)" d="M 8.7185878,4.0337352 -2.2072895,0.01601326 8.7185884,-4.0017078 c -1.7454984,2.3720609 -1.7354408,5.6174519 -6e-7,8.035443 z" style="fill:#fafafa;fill-opacity:1;fill-rule:evenodd;stroke:#fafafa;stroke-width:0.625;stroke-linejoin:round;stroke-opacity:1" id="path3427"/>
    </marker>
    <marker inkscape:isstock="true" style="overflow:visible" id="marker3186" refX="0" refY="0" orient="auto" inkscape:stockid="Arrow2Mend">
      <path transform="scale(-0.6)" d="M 8.7185878,4.0337352 -2.2072895,0.01601326 8.7185884,-4.0017078 c -1.7454984,2.3720609 -1.7354408,5.6174519 -6e-7,8.035443 z" style="fill:#fafafa;fill-opacity:1;fill-rule:evenodd;stroke:#fafafa;stroke-width:0.625;stroke-linejoin:round;stroke-opacity:1" id="path3184"/>
    </marker>
    <marker inkscape:isstock="true" style="overflow:visible" id="marker1997" refX="0" refY="0" orient="auto" inkscape:stockid="Arrow2Mend">
      <path transform="scale(-0.6)" d="M 8.7185878,4.0337352 -2.2072895,0.01601326 8.7185884,-4.0017078 c -1.7454984,2.3720609 -1.7354408,5.6174519 -6e-7,8.035443 z" style="fill:#fafafa;fill-opacity:1;fill-rule:evenodd;stroke:#fafafa;stroke-width:0.625;stroke-linejoin:round;stroke-opacity:1" id="path1995"/>
    </marker>
    <marker inkscape:stockid="Arrow2Mend" orient="auto" refY="0" refX="0" id="marker1987" style="overflow:visible" inkscape:isstock="true">
      <path id="path1985" style="fill:#fafafa;fill-opacity:1;fill-rule:evenodd;stroke:#fafafa;stroke-width:0.625;stroke-linejoin:round;stroke-opacity:1" d="M 8.7185878,4.0337352 -2.2072895,0.01601326 8.7185884,-4.0017078 c -1.7454984,2.3720609 -1.7354408,5.6174519 -6e-7,8.035443 z" transform="scale(-0.6)"/>
    </marker>
    <marker inkscape:isstock="true" style="overflow:visible" id="marker1977" refX="0" refY="0" orient="auto" inkscape:stockid="Arrow2Mend">
      <path transform="scale(-0.6)" d="M 8.7185878,4.0337352 -2.2072895,0.01601326 8.7185884,-4.0017078 c -1.7454984,2.3720609 -1.7354408,5.6174519 -6e-7,8.035443 z" style="fill:#fafafa;fill-opacity:1;fill-rule:evenodd;stroke:#fafafa;stroke-width:0.625;stroke-linejoin:round;stroke-opacity:1" id="path1975"/>
    </marker>
    <marker inkscape:isstock="true" style="overflow:visible" id="marker1967" refX="0" refY="0" orient="auto" inkscape:stockid="Arrow2Mend">
      <path transform="scale(-0.6)" d="M 8.7185878,4.0337352 -2.2072895,0.01601326 8.7185884,-4.0017078 c -1.7454984,2.3720609 -1.7354408,5.6174519 -6e-7,8.035443 z" style="fill:#fafafa;fill-opacity:1;fill-rule:evenodd;stroke:#fafafa;stroke-width:0.625;stroke-linejoin:round;stroke-opacity:1" id="path1965"/>
    </marker>
    <marker inkscape:isstock="true" style="overflow:visible" id="marker1393" refX="0" refY="0" orient="auto" inkscape:stockid="Arrow2Mend">
      <path transform="scale(-0.6)" d="M 8.7185878,4.0337352 -2.2072895,0.01601326 8.7185884,-4.0017078 c -1.7454984,2.3720609 -1.7354408,5.6174519 -6e-7,8.035443 z" style="fill:#fafafa;fill-opacity:1;fill-rule:evenodd;stroke:#fafafa;stroke-width:0.625;stroke-linejoin:round;stroke-opacity:1" id="path1391"/>
    </marker>
    <rect x="-107.6756" y="680.49237" width="211.57236" height="84.034187" id="rect897"/>
    <rect id="rect905" height="84.034187" width="211.57236" y="680.49237" x="-107.6756"/>
    <rect id="rect911" height="84.034187" width="211.57236" y="680.49237" x="-107.6756"/>
    <rect x="-107.6756" y="680.49237" width="211.57236" height="84.034187" id="rect917"/>
    <rect id="rect923" height="84.034187" width="211.57236" y="680.49237" x="-107.6756"/>
    <rect x="-107.6756" y="680.49237" width="211.57236" height="84.034187" id="rect929"/>
    <rect id="rect1009" height="84.034187" width="211.57236" y="680.49237" x="-107.6756"/>
    <rect x="-107.6756" y="680.49237" width="211.57236" height="84.034187" id="rect1959"/>
    <rect id="rect1961" height="84.034187" width="211.57236" y="680.49237" x="-107.6756"/>
    <rect x="-107.6756" y="680.49237" width="211.57236" height="84.034187" id="rect1963"/>
    <rect x="-107.6756" y="680.49237" width="211.57236" height="84.034187" id="rect2227"/>
    <rect id="rect2245" height="84.034187" width="211.57236" y="680.49237" x="-107.6756"/>
    <rect x="-107.6756" y="680.49237" width="211.57236" height="84.034187" id="rect2279"/>
    <rect id="rect2323" height="84.034187" width="211.57236" y="680.49237" x="-107.6756"/>
    <rect x="-107.6756" y="680.49237" width="211.57236" height="84.034187" id="rect2325"/>
    <rect id="rect2654" height="84.034187" width="211.57236" y="680.49237" x="-107.6756"/>
    <rect x="-107.6756" y="680.49237" width="211.57236" height="84.034187" id="rect2656"/>
    <rect id="rect2746" height="84.034187" width="211.57236" y="680.49237" x="-107.6756"/>
    <rect x="-107.6756" y="680.49237" width="211.57236" height="84.034187" id="rect2748"/>
    <rect id="rect2792" height="84.034187" width="211.57236" y="680.49237" x="-107.6756"/>
    <rect x="-107.6756" y="680.49237" width="211.57236" height="84.034187" id="rect2794"/>
    <rect x="-107.6756" y="680.49237" width="211.57236" height="84.034187" id="rect3178"/>
    <rect x="-107.6756" y="680.49237" width="211.57236" height="84.034187" id="rect3180"/>
    <rect id="rect3182" height="84.034187" width="211.57236" y="680.49237" x="-107.6756"/>
    <rect x="-107.6756" y="680.49237" width="211.57236" height="84.034187" id="rect3543"/>
    <rect id="rect3180-6" height="84.034187" width="211.57236" y="680.49237" x="-107.6756"/>
    <rect id="rect6384" height="84.034187" width="211.57236" y="680.49237" x="-107.6756"/>
    <rect x="-107.6756" y="680.49237" width="211.57236" height="84.034187" id="rect3182-3"/>
    <rect x="-107.6756" y="680.49237" width="211.57236" height="84.034187" id="rect6387"/>
    <marker inkscape:stockid="Arrow2Mend" orient="auto" refY="0" refX="0" id="marker3429-1" style="overflow:visible" inkscape:isstock="true">
      <path id="path3427-7" style="fill:#fafafa;fill-opacity:1;fill-rule:evenodd;stroke:#fafafa;stroke-width:0.625;stroke-linejoin:round;stroke-opacity:1" d="M 8.7185878,4.0337352 -2.2072895,0.01601326 8.7185884,-4.0017078 c -1.7454984,2.3720609 -1.7354408,5.6174519 -6e-7,8.035443 z" transform="scale(-0.6)"/>
    </marker>
    <rect id="rect3543-5" height="84.034187" width="211.57236" y="680.49237" x="-107.6756"/>
    <rect id="rect6392" height="84.034187" width="211.57236" y="680.49237" x="-107.6756"/>
    <rect x="-107.6756" y="680.49237" width="211.57236" height="84.034187" id="rect923-9"/>
    <rect x="-107.6756" y="680.49237" width="211.57236" height="84.034187" id="rect6718"/>
    <rect x="-107.6756" y="680.49237" width="211.57236" height="84.034187" id="rect2792-6"/>
    <rect x="-107.6756" y="680.49237" width="211.57236" height="84.034187" id="rect6721"/>
    <rect id="rect2794-2" height="84.034187" width="211.57236" y="680.49237" x="-107.6756"/>
    <rect id="rect6724" height="84.034187" width="211.57236" y="680.49237" x="-107.6756"/>
    <marker inkscape:collect="always" inkscape:isstock="true" style="overflow:visible" id="marker2806" refX="0" refY="0" orient="auto" inkscape:stockid="Arrow2Mend">
      <path transform="scale(-0.6)" d="M 8.7185878,4.0337352 -2.2072895,0.01601326 8.7185884,-4.0017078 c -1.7454984,2.3720609 -1.7354408,5.6174519 -6e-7,8.035443 z" style="fill:#fafafa;fill-opacity:1;fill-rule:evenodd;stroke:#fafafa;stroke-width:0.625;stroke-linejoin:round;stroke-opacity:1" id="path2804"/>
    </marker>
    <rect x="-107.6756" y="680.49237" width="211.57236" height="84.034187" id="rect2746-1"/>
    <rect x="-107.6756" y="680.49237" width="211.57236" height="84.034187" id="rect7079"/>
    <rect id="rect2748-7" height="84.034187" width="211.57236" y="680.49237" x="-107.6756"/>
    <rect id="rect7082" height="84.034187" width="211.57236" y="680.49237" x="-107.6756"/>
    <rect x="-107.6756" y="680.49237" width="211.57236" height="84.034187" id="rect2654-8"/>
    <rect x="-107.6756" y="680.49237" width="211.57236" height="84.034187" id="rect7171"/>
    <rect id="rect2656-5" height="84.034187" width="211.57236" y="680.49237" x="-107.6756"/>
    <rect id="rect7174" height="84.034187" width="211.57236" y="680.49237" x="-107.6756"/>
    <rect x="-107.6756" y="680.49237" width="211.57236" height="84.034187" id="rect2323-7"/>
    <rect x="-107.6756" y="680.49237" width="211.57236" height="84.034187" id="rect7263"/>
    <rect id="rect2325-4" height="84.034187" width="211.57236" y="680.49237" x="-107.6756"/>
    <rect id="rect7266" height="84.034187" width="211.57236" y="680.49237" x="-107.6756"/>
    <rect id="rect929-1" height="84.034187" width="211.57236" y="680.49237" x="-107.6756"/>
    <rect id="rect7269" height="84.034187" width="211.57236" y="680.49237" x="-107.6756"/>
    <rect x="-107.6756" y="680.49237" width="211.57236" height="84.034187" id="rect2245-8"/>
    <rect x="-107.6756" y="680.49237" width="211.57236" height="84.034187" id="rect7657"/>
  </defs>
  <sodipodi:namedview id="base" pagecolor="#191919" bordercolor="#666666" borderopacity="1.0" inkscape:pageopacity="0" inkscape:pageshadow="2" inkscape:zoom="0.49497475" inkscape:cx="-69.425856" inkscape:cy="41.450266" inkscape:document-units="mm" inkscape:current-layer="layer3" inkscape:document-rotation="0" showgrid="false" showborder="true" inkscape:pagecheckerboard="false" inkscape:window-width="1908" inkscape:window-height="1022" inkscape:window-x="6" inkscape:window-y="52" inkscape:window-maximized="0" fit-margin-top="0" fit-margin-left="0" fit-margin-right="0" fit-margin-bottom="0" viewbox-y="0"/>
  <metadata id="metadata5">
    <rdf:RDF>
      <cc:Work rdf:about="">
        <dc:format>image/svg+xml</dc:format>
        <dc:type rdf:resource="http://purl.org/dc/dcmitype/StillImage"/>
        <dc:title/>
      </cc:Work>
    </rdf:RDF>
  </metadata>
  <g inkscape:groupmode="layer" id="layer3" inkscape:label="Layer 6" style="display:inline">
    <g transform="translate(525.22825,-966.87043)" id="g3619">
      <text transform="translate(-156.15668,373.63664)" style="font-style:normal;font-weight:normal;font-size:14.1111px;line-height:1.25;font-family:sans-serif;white-space:pre;shape-inside:url(#rect923-9);fill:#f1a340;fill-opacity:1;stroke:none;" id="text921" xml:space="preserve"><tspan x="-107.67578" y="692.9772"><tspan style="font-size:14.1111px;fill:#fafafa;fill-opacity:1">merge</tspan></tspan></text>
      <text transform="translate(-189.12059,323.47278)" style="font-style:normal;font-weight:normal;font-size:14.1111px;line-height:1.25;font-family:sans-serif;white-space:pre;shape-inside:url(#rect2792-6);fill:#f1a340;fill-opacity:1;stroke:none;" id="text2752" xml:space="preserve"><tspan x="-107.67578" y="692.9772"><tspan style="font-size:14.1111px;fill:#f1a340;fill-opacity:1">main</tspan></tspan></text>
      <g id="g2786" transform="translate(-586.24255,449.51243)">
        <circle style="fill:#f1a340;fill-opacity:1;stroke-width:0.242546" id="circle2754" cx="71.029045" cy="582.44373" r="10.014743"/>
        <circle r="10.014743" cy="582.44379" cx="114.98917" id="circle2756" style="fill:#f1a340;fill-opacity:1;stroke-width:0.242546"/>
        <path style="fill:none;stroke:#f1a340;stroke-width:0.980572;stroke-linecap:butt;stroke-linejoin:miter;stroke-miterlimit:4;stroke-dasharray:none;stroke-opacity:1" d="M 81.043785,582.566 H 104.97443" id="path2758"/>
        <circle style="fill:#f1a340;fill-opacity:1;stroke-width:0.242546" id="circle2760" cx="158.9493" cy="582.44379" r="10.014743"/>
        <path id="path2762" d="m 125.00391,582.566 h 23.93066" style="fill:none;stroke:#f1a340;stroke-width:0.980572;stroke-linecap:butt;stroke-linejoin:miter;stroke-miterlimit:4;stroke-dasharray:none;stroke-opacity:1"/>
        <circle style="fill:#f1a340;fill-opacity:1;stroke-width:0.242546" id="circle2764" cx="202.90942" cy="582.44379" r="10.014743"/>
        <path id="path2766" d="m 168.96403,582.566 h 23.93066" style="fill:none;stroke:#f1a340;stroke-width:0.980572;stroke-linecap:butt;stroke-linejoin:miter;stroke-miterlimit:4;stroke-dasharray:none;stroke-opacity:1"/>
        <circle r="10.014743" cy="582.44379" cx="255.01276" id="circle2768" style="fill:#f1a340;fill-opacity:1;stroke-width:0.242546"/>
        <path style="fill:none;stroke:#f1a340;stroke-width:0.980572;stroke-linecap:butt;stroke-linejoin:miter;stroke-miterlimit:4;stroke-dasharray:none;stroke-opacity:1" d="m 212.92413,582.566 h 31.86816" id="path2770" sodipodi:nodetypes="cc"/>
        <circle r="10.014743" cy="619.4856" cx="233.0327" id="circle2772" style="fill:#998ec3;fill-opacity:1;stroke-width:0.242546"/>
        <circle r="10.014743" cy="619.4856" cx="276.99277" id="circle2774" style="fill:#998ec3;fill-opacity:1;stroke-width:0.242546"/>
        <path style="fill:none;stroke:#998ec3;stroke-width:0.980572;stroke-linecap:butt;stroke-linejoin:miter;stroke-miterlimit:4;stroke-dasharray:none;stroke-opacity:1" d="m 243.04741,619.60769 h 23.93066" id="path2776"/>
        <path id="path2778" d="m 209.9061,590.13716 17.09103,20.85904" style="fill:none;stroke:#998ec3;stroke-width:0.980572;stroke-linecap:butt;stroke-linejoin:miter;stroke-miterlimit:4;stroke-dasharray:none;stroke-opacity:1" sodipodi:nodetypes="cc"/>
        <circle r="10.014743" cy="582.44379" cx="-307.11606" id="circle2780" style="fill:#f1a340;fill-opacity:1;stroke-width:0.242546" transform="scale(-1,1)"/>
        <path sodipodi:nodetypes="cc" style="fill:none;stroke:#998ec3;stroke-width:0.980572;stroke-linecap:butt;stroke-linejoin:miter;stroke-miterlimit:4;stroke-dasharray:none;stroke-opacity:1" d="M 300.11931,590.13716 283.02828,610.9962" id="path2782"/>
        <path sodipodi:nodetypes="cc" id="path2784" d="m 265.112,582.566 h 31.86816" style="fill:none;stroke:#f1a340;stroke-width:0.980572;stroke-linecap:butt;stroke-linejoin:miter;stroke-miterlimit:4;stroke-dasharray:none;stroke-opacity:1"/>
      </g>
      <text xml:space="preserve" id="text2790" style="font-style:normal;font-weight:normal;font-size:14.1111px;line-height:1.25;font-family:sans-serif;white-space:pre;shape-inside:url(#rect2794-2);fill:#998ec3;fill-opacity:1;stroke:none;" transform="translate(-225.68965,402.04836)"><tspan x="-107.67578" y="692.9772"><tspan style="font-size:14.1111px;fill:#998ec3;fill-opacity:1">fix-bug</tspan></tspan></text>
      <path sodipodi:nodetypes="cc" style="fill:none;stroke:#fafafa;stroke-width:1.5;stroke-linecap:butt;stroke-linejoin:miter;stroke-miterlimit:4;stroke-dasharray:none;stroke-opacity:1;marker-end:url(#marker2806)" d="m -267.59183,1063.3352 -18.99916,-10.5566" id="path2802"/>
    </g>
  </g>
</svg>