<?xml version="1.0" encoding="UTF-8" standalone="no"?>
<svg xmlns:dc="http://purl.org/dc/elements/1.1/" xmlns:cc="http://creativecommons.org/ns#" xmlns:rdf="http://www.w3.org/1999/02/22-rdf-syntax-ns#" xmlns:svg="http://www.w3.org/2000/svg" xmlns="http://www.w3.org/2000/svg" xmlns:sodipodi="http://sodipodi.sourceforge.net/DTD/sodipodi-0.dtd" xmlns:inkscape="http://www.inkscape.org/namespaces/inkscape" width="308.74222mm" height="132.68198mm" viewBox="0 0 308.74222 132.68198" version="1.1" id="svg8" inkscape:version="1.0 (4035a4fb49, 2020-05-01)" sodipodi:docname="git-repo-2.svg">
  <defs id="defs2">
    <marker inkscape:isstock="true" style="overflow:visible" id="marker3429" refX="0" refY="0" orient="auto" inkscape:stockid="Arrow2Mend">
      <path transform="scale(-0.6)" d="M 8.7185878,4.0337352 -2.2072895,0.01601326 8.7185884,-4.0017078 c -1.7454984,2.3720609 -1.7354408,5.6174519 -6e-7,8.035443 z" style="fill:#fafafa;fill-opacity:1;fill-rule:evenodd;stroke:#fafafa;stroke-width:0.625;stroke-linejoin:round;stroke-opacity:1" id="path3427"/>
    </marker>
    <marker inkscape:isstock="true" style="overflow:visible" id="marker3186" refX="0" refY="0" orient="auto" inkscape:stockid="Arrow2Mend">
      <path transform="scale(-0.6)" d="M 8.7185878,4.0337352 -2.2072895,0.01601326 8.7185884,-4.0017078 c -1.7454984,2.3720609 -1.7354408,5.6174519 -6e-7,8.035443 z" style="fill:#fafafa;fill-opacity:1;fill-rule:evenodd;stroke:#fafafa;stroke-width:0.625;stroke-linejoin:round;stroke-opacity:1" id="path3184"/>
    </marker>
    <marker inkscape:isstock="true" style="overflow:visible" id="marker1997" refX="0" refY="0" orient="auto" inkscape:stockid="Arrow2Mend">
      <path transform="scale(-0.6)" d="M 8.7185878,4.0337352 -2.2072895,0.01601326 8.7185884,-4.0017078 c -1.7454984,2.3720609 -1.7354408,5.6174519 -6e-7,8.035443 z" style="fill:#fafafa;fill-opacity:1;fill-rule:evenodd;stroke:#fafafa;stroke-width:0.625;stroke-linejoin:round;stroke-opacity:1" id="path1995"/>
    </marker>
    <marker inkscape:stockid="Arrow2Mend" orient="auto" refY="0" refX="0" id="marker1987" style="overflow:visible" inkscape:isstock="true">
      <path id="path1985" style="fill:#fafafa;fill-opacity:1;fill-rule:evenodd;stroke:#fafafa;stroke-width:0.625;stroke-linejoin:round;stroke-opacity:1" d="M 8.7185878,4.0337352 -2.2072895,0.01601326 8.7185884,-4.0017078 c -1.7454984,2.3720609 -1.7354408,5.6174519 -6e-7,8.035443 z" transform="scale(-0.6)"/>
    </marker>
    <marker inkscape:isstock="true" style="overflow:visible" id="marker1977" refX="0" refY="0" orient="auto" inkscape:stockid="Arrow2Mend">
      <path transform="scale(-0.6)" d="M 8.7185878,4.0337352 -2.2072895,0.01601326 8.7185884,-4.0017078 c -1.7454984,2.3720609 -1.7354408,5.6174519 -6e-7,8.035443 z" style="fill:#fafafa;fill-opacity:1;fill-rule:evenodd;stroke:#fafafa;stroke-width:0.625;stroke-linejoin:round;stroke-opacity:1" id="path1975"/>
    </marker>
    <marker inkscape:isstock="true" style="overflow:visible" id="marker1967" refX="0" refY="0" orient="auto" inkscape:stockid="Arrow2Mend">
      <path transform="scale(-0.6)" d="M 8.7185878,4.0337352 -2.2072895,0.01601326 8.7185884,-4.0017078 c -1.7454984,2.3720609 -1.7354408,5.6174519 -6e-7,8.035443 z" style="fill:#fafafa;fill-opacity:1;fill-rule:evenodd;stroke:#fafafa;stroke-width:0.625;stroke-linejoin:round;stroke-opacity:1" id="path1965"/>
    </marker>
    <marker inkscape:isstock="true" style="overflow:visible" id="marker1393" refX="0" refY="0" orient="auto" inkscape:stockid="Arrow2Mend">
      <path transform="scale(-0.6)" d="M 8.7185878,4.0337352 -2.2072895,0.01601326 8.7185884,-4.0017078 c -1.7454984,2.3720609 -1.7354408,5.6174519 -6e-7,8.035443 z" style="fill:#fafafa;fill-opacity:1;fill-rule:evenodd;stroke:#fafafa;stroke-width:0.625;stroke-linejoin:round;stroke-opacity:1" id="path1391"/>
    </marker>
    <rect x="-107.6756" y="680.49237" width="211.57236" height="84.034187" id="rect897"/>
    <rect id="rect905" height="84.034187" width="211.57236" y="680.49237" x="-107.6756"/>
    <rect id="rect911" height="84.034187" width="211.57236" y="680.49237" x="-107.6756"/>
    <rect x="-107.6756" y="680.49237" width="211.57236" height="84.034187" id="rect917"/>
    <rect id="rect923" height="84.034187" width="211.57236" y="680.49237" x="-107.6756"/>
    <rect x="-107.6756" y="680.49237" width="211.57236" height="84.034187" id="rect929"/>
    <rect id="rect1009" height="84.034187" width="211.57236" y="680.49237" x="-107.6756"/>
    <rect x="-107.6756" y="680.49237" width="211.57236" height="84.034187" id="rect1959"/>
    <rect id="rect1961" height="84.034187" width="211.57236" y="680.49237" x="-107.6756"/>
    <rect x="-107.6756" y="680.49237" width="211.57236" height="84.034187" id="rect1963"/>
    <rect x="-107.6756" y="680.49237" width="211.57236" height="84.034187" id="rect2227"/>
    <rect id="rect2245" height="84.034187" width="211.57236" y="680.49237" x="-107.6756"/>
    <rect x="-107.6756" y="680.49237" width="211.57236" height="84.034187" id="rect2279"/>
    <rect id="rect2323" height="84.034187" width="211.57236" y="680.49237" x="-107.6756"/>
    <rect x="-107.6756" y="680.49237" width="211.57236" height="84.034187" id="rect2325"/>
    <rect id="rect2654" height="84.034187" width="211.57236" y="680.49237" x="-107.6756"/>
    <rect x="-107.6756" y="680.49237" width="211.57236" height="84.034187" id="rect2656"/>
    <rect id="rect2746" height="84.034187" width="211.57236" y="680.49237" x="-107.6756"/>
    <rect x="-107.6756" y="680.49237" width="211.57236" height="84.034187" id="rect2748"/>
    <rect id="rect2792" height="84.034187" width="211.57236" y="680.49237" x="-107.6756"/>
    <rect x="-107.6756" y="680.49237" width="211.57236" height="84.034187" id="rect2794"/>
    <rect x="-107.6756" y="680.49237" width="211.57236" height="84.034187" id="rect3178"/>
    <rect x="-107.6756" y="680.49237" width="211.57236" height="84.034187" id="rect3180"/>
    <rect id="rect3182" height="84.034187" width="211.57236" y="680.49237" x="-107.6756"/>
    <rect x="-107.6756" y="680.49237" width="211.57236" height="84.034187" id="rect3543"/>
    <rect id="rect3180-6" height="84.034187" width="211.57236" y="680.49237" x="-107.6756"/>
    <rect id="rect6384" height="84.034187" width="211.57236" y="680.49237" x="-107.6756"/>
    <rect x="-107.6756" y="680.49237" width="211.57236" height="84.034187" id="rect3182-3"/>
    <rect x="-107.6756" y="680.49237" width="211.57236" height="84.034187" id="rect6387"/>
    <marker inkscape:stockid="Arrow2Mend" orient="auto" refY="0" refX="0" id="marker3429-1" style="overflow:visible" inkscape:isstock="true">
      <path id="path3427-7" style="fill:#fafafa;fill-opacity:1;fill-rule:evenodd;stroke:#fafafa;stroke-width:0.625;stroke-linejoin:round;stroke-opacity:1" d="M 8.7185878,4.0337352 -2.2072895,0.01601326 8.7185884,-4.0017078 c -1.7454984,2.3720609 -1.7354408,5.6174519 -6e-7,8.035443 z" transform="scale(-0.6)"/>
    </marker>
    <rect id="rect3543-5" height="84.034187" width="211.57236" y="680.49237" x="-107.6756"/>
    <rect id="rect6392" height="84.034187" width="211.57236" y="680.49237" x="-107.6756"/>
    <rect x="-107.6756" y="680.49237" width="211.57236" height="84.034187" id="rect923-9"/>
    <rect x="-107.6756" y="680.49237" width="211.57236" height="84.034187" id="rect6718"/>
    <rect x="-107.6756" y="680.49237" width="211.57236" height="84.034187" id="rect2792-6"/>
    <rect x="-107.6756" y="680.49237" width="211.57236" height="84.034187" id="rect6721"/>
    <rect id="rect2794-2" height="84.034187" width="211.57236" y="680.49237" x="-107.6756"/>
    <rect id="rect6724" height="84.034187" width="211.57236" y="680.49237" x="-107.6756"/>
    <rect x="-107.6756" y="680.49237" width="211.57236" height="84.034187" id="rect2746-1"/>
    <rect x="-107.6756" y="680.49237" width="211.57236" height="84.034187" id="rect7079"/>
    <rect id="rect2748-7" height="84.034187" width="211.57236" y="680.49237" x="-107.6756"/>
    <rect id="rect7082" height="84.034187" width="211.57236" y="680.49237" x="-107.6756"/>
    <rect x="-107.6756" y="680.49237" width="211.57236" height="84.034187" id="rect2654-8"/>
    <rect x="-107.6756" y="680.49237" width="211.57236" height="84.034187" id="rect7171"/>
    <rect id="rect2656-5" height="84.034187" width="211.57236" y="680.49237" x="-107.6756"/>
    <rect id="rect7174" height="84.034187" width="211.57236" y="680.49237" x="-107.6756"/>
    <rect x="-107.6756" y="680.49237" width="211.57236" height="84.034187" id="rect2323-7"/>
    <rect x="-107.6756" y="680.49237" width="211.57236" height="84.034187" id="rect7263"/>
    <rect id="rect2325-4" height="84.034187" width="211.57236" y="680.49237" x="-107.6756"/>
    <rect id="rect7266" height="84.034187" width="211.57236" y="680.49237" x="-107.6756"/>
    <rect id="rect929-1" height="84.034187" width="211.57236" y="680.49237" x="-107.6756"/>
    <rect id="rect7269" height="84.034187" width="211.57236" y="680.49237" x="-107.6756"/>
    <rect x="-107.6756" y="680.49237" width="211.57236" height="84.034187" id="rect2245-8"/>
    <rect x="-107.6756" y="680.49237" width="211.57236" height="84.034187" id="rect7657"/>
  </defs>
  <sodipodi:namedview id="base" pagecolor="#191919" bordercolor="#666666" borderopacity="1.0" inkscape:pageopacity="0" inkscape:pageshadow="2" inkscape:zoom="0.49497475" inkscape:cx="-69.425856" inkscape:cy="41.450266" inkscape:document-units="mm" inkscape:current-layer="layer7" inkscape:document-rotation="0" showgrid="false" showborder="true" inkscape:pagecheckerboard="false" inkscape:window-width="1908" inkscape:window-height="1022" inkscape:window-x="6" inkscape:window-y="52" inkscape:window-maximized="0" fit-margin-top="0" fit-margin-left="0" fit-margin-right="0" fit-margin-bottom="0" viewbox-y="0"/>
  <metadata id="metadata5">
    <rdf:RDF>
      <cc:Work rdf:about="">
        <dc:format>image/svg+xml</dc:format>
        <dc:type rdf:resource="http://purl.org/dc/dcmitype/StillImage"/>
        <dc:title/>
      </cc:Work>
    </rdf:RDF>
  </metadata>
  <g inkscape:groupmode="layer" id="layer7" inkscape:label="Layer 2" style="display:inline">
    <g transform="translate(523.38494,-481.28513)" id="g3718">
      <g id="g2484">
        <circle style="fill:#f1a340;fill-opacity:1;stroke-width:0.242546" id="circle2173" cx="-513.37018" cy="546.37085" r="10.014743"/>
        <circle r="10.014743" cy="546.37091" cx="-469.41006" id="circle2175" style="fill:#f1a340;fill-opacity:1;stroke-width:0.242546"/>
        <path style="fill:none;stroke:#f1a340;stroke-width:0.980572;stroke-linecap:butt;stroke-linejoin:miter;stroke-miterlimit:4;stroke-dasharray:none;stroke-opacity:1" d="m -503.35545,546.49313 h 23.93064" id="path2177"/>
        <circle style="fill:#f1a340;fill-opacity:1;stroke-width:0.242546" id="circle2179" cx="-425.44995" cy="546.37091" r="10.014743"/>
        <path id="path2181" d="m -459.39533,546.49313 h 23.93066" style="fill:none;stroke:#f1a340;stroke-width:0.980572;stroke-linecap:butt;stroke-linejoin:miter;stroke-miterlimit:4;stroke-dasharray:none;stroke-opacity:1"/>
        <circle style="fill:#f1a340;fill-opacity:1;stroke-width:0.242546" id="circle2183" cx="-381.48981" cy="546.37091" r="10.014743"/>
        <path id="path2185" d="m -415.43521,546.49313 h 23.93066" style="fill:none;stroke:#f1a340;stroke-width:0.980572;stroke-linecap:butt;stroke-linejoin:miter;stroke-miterlimit:4;stroke-dasharray:none;stroke-opacity:1"/>
        <text xml:space="preserve" id="text2243" style="font-style:normal;font-weight:normal;font-size:14.1111px;line-height:1.25;font-family:sans-serif;white-space:pre;shape-inside:url(#rect2245-8);fill:#f1a340;fill-opacity:1;stroke:none;" transform="translate(-291.48391,-162.11252)"><tspan x="-107.67578" y="692.9772"><tspan style="font-size:14.1111px;fill:#f1a340;fill-opacity:1">main</tspan></tspan></text>
      </g>
    </g>
  </g>
</svg>