<?xml version="1.0" encoding="UTF-8" standalone="no"?>
<!-- Generator: Adobe Illustrator 15.1.0, SVG Export Plug-In . SVG Version: 6.00 Build 0)  -->

<svg
   version="1.1"
   x="0px"
   y="0px"
   width="610"
   height="500"
   viewBox="0 0 610 500"
   enable-background="new 0 0 622 452"
   xml:space="preserve"
   id="svg2"
   inkscape:version="1.1.2 (0a00cf5339, 2022-02-04)"
   sodipodi:docname="git-freshly-made-github-repo.svg"
   xmlns:inkscape="http://www.inkscape.org/namespaces/inkscape"
   xmlns:sodipodi="http://sodipodi.sourceforge.net/DTD/sodipodi-0.dtd"
   xmlns="http://www.w3.org/2000/svg"
   xmlns:svg="http://www.w3.org/2000/svg"
   xmlns:rdf="http://www.w3.org/1999/02/22-rdf-syntax-ns#"
   xmlns:cc="http://creativecommons.org/ns#"
   xmlns:dc="http://purl.org/dc/elements/1.1/"><metadata
     id="metadata134"><rdf:RDF><cc:Work
         rdf:about=""><dc:format>image/svg+xml</dc:format><dc:type
           rdf:resource="http://purl.org/dc/dcmitype/StillImage" /></cc:Work></rdf:RDF></metadata><defs
     id="defs132">

<linearGradient
   id="SVGID_2_"
   gradientUnits="userSpaceOnUse"
   x1="537.17682"
   y1="57.660198"
   x2="537.17682"
   y2="112.9126"
   gradientTransform="translate(-4.1425018,-9)"><stop
     offset="0.0982"
     style="stop-color:#C4C4C4"
     id="stop60" /><stop
     offset="0.5326"
     style="stop-color:#686868"
     id="stop62" /><stop
     offset="1"
     style="stop-color:#000000"
     id="stop64" /></linearGradient>





</defs><sodipodi:namedview
     pagecolor="#ffffff"
     bordercolor="#666666"
     borderopacity="1"
     objecttolerance="10"
     gridtolerance="10"
     guidetolerance="10"
     inkscape:pageopacity="0"
     inkscape:pageshadow="2"
     inkscape:window-width="1920"
     inkscape:window-height="1005"
     id="namedview130"
     showgrid="false"
     fit-margin-top="0"
     fit-margin-left="0"
     fit-margin-right="0"
     fit-margin-bottom="0"
     inkscape:zoom="0.93030281"
     inkscape:cx="311.72646"
     inkscape:cy="290.76554"
     inkscape:window-x="0"
     inkscape:window-y="38"
     inkscape:window-maximized="1"
     inkscape:current-layer="svg2"
     inkscape:pagecheckerboard="0" /><rect
     id="rect3492"
     height="244"
     width="603.78497"
     stroke-miterlimit="10"
     y="253"
     x="2.8574982"
     style="fill:#ffffff;stroke:#000000;stroke-miterlimit:10" /><path
     stroke-miterlimit="10"
     d="m 593.8575,304 c 0,-8.284 -6.716,-15 -15,-15 h -385 c -8.284,0 -15,6.716 -15,15 v 167 c 0,8.284 6.716,15 15,15 h 385 c 8.284,0 15,-6.716 15,-15 z"
     id="path3496"
     inkscape:connector-curvature="0"
     style="fill:#b5b5b5;stroke:#ffffff;stroke-miterlimit:10" /><rect
     x="192.8575"
     y="300"
     width="70"
     height="28"
     id="rect3498"
     style="fill:none" /><text
     font-size="18"
     id="text3500"
     style="font-size:18px;line-height:0%;font-family:Consolas"
     x="192.8575"
     y="312.41989">.git</text><rect
     x="2.8574982"
     y="3"
     stroke-miterlimit="10"
     width="603.78497"
     height="244"
     id="rect5"
     style="fill:#ffffff;stroke:#000000;stroke-miterlimit:10" /><path
     style="fill:#b5b5b5;stroke:#ffffff;stroke-miterlimit:10"
     inkscape:connector-curvature="0"
     id="path10"
     d="m 593.8575,54 c 0,-8.284 -6.716,-15 -15,-15 h -385 c -8.284,0 -15,6.716 -15,15 v 167 c 0,8.284 6.716,15 15,15 h 385 c 8.284,0 15,-6.716 15,-15 z"
     stroke-miterlimit="10" /><rect
     style="fill:none"
     id="rect12"
     height="28"
     width="70"
     y="50"
     x="192.8575" /><text
     style="font-size:18px;line-height:0%;font-family:Consolas"
     id="text14"
     font-size="18"
     x="192.8575"
     y="62.419899">.git</text><rect
     style="fill:none"
     id="rect16"
     height="24.448999"
     width="195.58501"
     y="10"
     x="11.857498" /><g
     id="g37"
     transform="translate(-4.1425018,-9)"><linearGradient
       id="SVGID_1_"
       gradientUnits="userSpaceOnUse"
       x1="303.49899"
       y1="123.9863"
       x2="303.49899"
       y2="179.23489"><stop
         offset="0.0982"
         style="stop-color:#C4C4C4"
         id="stop40" /><stop
         offset="0.5326"
         style="stop-color:#686868"
         id="stop42" /><stop
         offset="1"
         style="stop-color:#000000"
         id="stop44" /></linearGradient><path
       stroke-miterlimit="10"
       d="m 253.453,178.205 c 0,-9.264 22.404,-16.777 50.047,-16.777 27.643,0 50.045,7.514 50.045,16.777 v 1.029 c 0,0 0,-2.115 0,-3.117 0,-1.007 0,-35.745 0,-35.745 v 0.394 c 0,-9.27 -22.402,-16.78 -50.045,-16.78 -27.643,0 -50.047,7.51 -50.047,16.78 v -0.394 c 0,0 0,34.519 0,35.733 0,1.205 0,3.129 0,3.129 z"
       id="path46"
       inkscape:connector-curvature="0"
       style="fill:url(#SVGID_1_);stroke:#231f20;stroke-miterlimit:10" /><g
       id="g48"><path
         stroke-miterlimit="10"
         d="m 353.545,140.373 c 0,0 0,34.738 0,35.745 0,1.002 0.355,3.117 0.355,3.117 0,9.27 -22.758,16.779 -50.4,16.779 -27.642,0 -50.4,-7.51 -50.4,-16.779 0,0 0.354,-1.924 0.354,-3.129 0,-1.214 0,-35.733 0,-35.733 0,9.274 22.404,16.785 50.047,16.785 27.643,0 50.044,-7.511 50.044,-16.785 z"
         id="path50"
         inkscape:connector-curvature="0"
         style="fill:#ffffff;stroke:#231f20;stroke-miterlimit:10" /></g></g><g
     id="g52"
     transform="translate(-4.1425018,-9)"><polygon
       stroke-miterlimit="10"
       points="282.411,134.965 269.235,149.459 328.542,149.459 341.719,134.965 "
       id="polygon54"
       style="fill:#ffffff;stroke:#000000;stroke-miterlimit:10" /><line
       x1="282.41101"
       y1="140.894"
       x2="331.16501"
       y2="140.894"
       id="line56"
       style="fill:none;stroke:#70bf41;stroke-width:2" /></g><path
     stroke-miterlimit="10"
     d="m 482.9875,102.882 c 0,-9.268 22.407,-16.781 50.047,-16.781 27.641,0 50.047,7.513 50.047,16.781 v 1.03 c 0,0 0,-2.118 0,-3.121 0,-1.003 0,-35.739 0,-35.739 v 0.388 c 0,-9.268 -22.406,-16.781 -50.047,-16.781 -27.64,0 -50.047,7.513 -50.047,16.781 v -0.388 c 0,0 0,34.519 0,35.728 0,1.209 0,3.132 0,3.132 z"
     id="path66"
     inkscape:connector-curvature="0"
     style="fill:url(#SVGID_2_);stroke:#231f20;stroke-miterlimit:10" /><g
     id="g68"
     transform="translate(-4.1425018,-9)"><path
       stroke-miterlimit="10"
       d="m 587.021,151.283 c 0,0 0,34.738 0,35.74 0,1.002 0.354,3.121 0.354,3.121 0,9.268 -22.76,16.779 -50.4,16.779 -27.64,0 -50.399,-7.512 -50.399,-16.779 0,0 0.353,-1.924 0.353,-3.133 0,-1.209 0,-35.729 0,-35.729 0,9.268 22.407,16.781 50.047,16.781 27.638,0.001 50.045,-7.512 50.045,-16.78 z"
       id="path70"
       inkscape:connector-curvature="0"
       style="fill:#ffffff;stroke:#231f20;stroke-miterlimit:10" /></g><g
     id="g72"
     transform="translate(-4.1425018,-9)"><path
       stroke-miterlimit="10"
       d="m 587.021,112.601 c 0,0 0,34.736 0,35.739 0,1.002 0.354,3.121 0.354,3.121 0,9.268 -22.76,16.779 -50.4,16.779 -27.64,0 -50.399,-7.512 -50.399,-16.779 0,0 0.353,-1.923 0.353,-3.132 0,-1.209 0,-35.728 0,-35.728 0,9.268 22.407,16.78 50.047,16.78 27.638,0 50.045,-7.512 50.045,-16.78 z"
       id="path74"
       inkscape:connector-curvature="0"
       style="fill:#ffffff;stroke:#231f20;stroke-miterlimit:10" /></g><g
     id="g76"
     transform="translate(-4.1425018,-9)"><path
       stroke-miterlimit="10"
       d="m 587.021,73.628 c 0,0 0,34.737 0,35.739 0,1.002 0.354,3.12 0.354,3.12 0,9.269 -22.76,16.781 -50.4,16.781 -27.64,0 -50.399,-7.513 -50.399,-16.781 0,0 0.353,-1.922 0.353,-3.131 0,-1.209 0,-35.728 0,-35.728 0,9.268 22.407,16.78 50.047,16.78 27.638,0.001 50.045,-7.512 50.045,-16.78 z"
       id="path78"
       inkscape:connector-curvature="0"
       style="fill:#ffffff;stroke:#231f20;stroke-miterlimit:10" /></g><g
     id="g80"
     transform="translate(-4.1425018,-9)"><polygon
       stroke-miterlimit="10"
       points="513.908,66.381 500.732,80.875 560.039,80.875 573.216,66.381 "
       id="polygon82"
       style="fill:#ffffff;stroke:#000000;stroke-miterlimit:10" /><line
       x1="513.90802"
       y1="72.310997"
       x2="562.66199"
       y2="72.310997"
       id="line84"
       style="fill:none;stroke:#70bf41;stroke-width:2" /></g><g
     id="g87"
     transform="translate(-4.1425018,-9)"><rect
       x="24"
       y="85"
       width="100"
       height="128"
       id="rect89"
       style="fill:#dcdee0" /><rect
       x="24"
       y="85"
       width="100"
       height="128"
       id="rect91"
       style="fill:none;stroke:#85888d;stroke-width:2" /><line
       x1="37"
       y1="105"
       x2="111"
       y2="105"
       id="line93"
       style="fill:none;stroke:#000000;stroke-width:2" /><line
       x1="37"
       y1="111"
       x2="111"
       y2="111"
       id="line95"
       style="fill:none;stroke:#000000;stroke-width:2" /><line
       x1="37"
       y1="117"
       x2="111"
       y2="117"
       id="line97"
       style="fill:none;stroke:#000000;stroke-width:2" /><line
       x1="37"
       y1="129"
       x2="111"
       y2="129"
       id="line99"
       style="fill:none;stroke:#70bf41;stroke-width:2" /></g><g
     id="g102"
     transform="translate(-4.1425018,-9)"><rect
       x="150.871"
       y="136.76801"
       width="45.956001"
       height="30.604"
       id="rect104"
       style="fill:#45beee" /><polygon
       points="234.02,151.163 193.467,121.571 193.467,181.695 "
       id="polygon106"
       style="fill:#45beee" /></g><rect
     x="159.8575"
     y="137.069"
     width="52.743"
     height="14"
     id="rect108"
     style="fill:none" /><text
     font-size="12"
     id="text110"
     style="font-size:12px;line-height:0%;font-family:Consolas"
     x="159.8575"
     y="145.34959">git add</text><g
     id="g112"
     transform="translate(-4.1425018,-9)"><rect
       x="381.25101"
       y="136.76801"
       width="45.956001"
       height="30.604"
       id="rect114"
       style="fill:#45beee" /><polygon
       points="464.399,151.163 423.847,121.571 423.847,181.695 "
       id="polygon116"
       style="fill:#45beee" /></g><rect
     x="372.83752"
     y="137.069"
     width="85.542"
     height="14"
     id="rect118"
     style="fill:none" /><text
     font-size="12"
     id="text120"
     style="font-size:12px;line-height:0%;font-family:Consolas"
     x="382.62119"
     y="145.34959">git commit</text><rect
     x="224.8575"
     y="197"
     width="147"
     height="17"
     id="rect122"
     style="fill:none" /><text
     font-size="12"
     id="text124"
     style="font-size:12px;line-height:0%;font-family:Helvetica"
     x="265.33411"
     y="205.6279">staging area</text><rect
     x="460.64252"
     y="210"
     width="147"
     height="17"
     id="rect126"
     style="fill:none" /><text
     font-size="12"
     id="text128"
     style="font-size:12px;line-height:0%;font-family:Helvetica"
     x="507.79889"
     y="218.6279">repository</text><text
     font-size="13.5"
     id="text4668"
     style="font-size:13.5px;line-height:0%;font-family:Helvetica;letter-spacing:0px"
     x="11.81957"
     y="19.674446">~/coco_coding_homework</text><path
     d="M 20.432189,33.20514 H 43.23257 v 15.200251 h 3.80006 V 32.255125 c 0,-1.566334 -1.283711,-2.850045 -2.850044,-2.850045 H 19.482174 c -1.566334,0 -2.850045,1.283711 -2.850045,2.850045 v 16.150266 h 3.80006 z M 49.882676,50.25199 H 13.782084 c -0.519535,0 -0.950015,0.43047 -0.950015,0.950014 v 0.950016 c 0,2.092996 1.707064,3.80006 3.80006,3.80006 H 47.03263 c 2.093006,0 3.80006,-1.707064 3.80006,-3.80006 v -0.950016 c 0,-0.469074 -0.427499,-0.950014 -0.950014,-0.950014 z"
     id="path2"
     style="stroke-width:0.059376" /><text
     y="269.68933"
     x="11.981324"
     id="text4829"
     font-size="13.5"
     style="font-size:13.5px;line-height:0%;font-family:Helvetica">https://github.com/&lt;your_username&gt;/coco_coding_homework.git</text><path
     d="m 31.926537,278.31523 c -10.49215,0 -19.00021,8.50617 -19.00021,18.9999 0,8.3948 5.44415,15.51689 12.99351,18.02931 0.94958,0.17586 1.29819,-0.41223 1.29819,-0.91409 0,-0.45306 -0.0177,-1.94978 -0.0258,-3.53745 -5.28588,1.14938 -6.40126,-2.24176 -6.40126,-2.24176 -0.86431,-2.19617 -2.10964,-2.78012 -2.10964,-2.78012 -1.72389,-1.17927 0.12986,-1.15502 0.12986,-1.15502 1.90795,0.13371 2.91258,1.95797 2.91258,1.95797 1.69464,2.90471 4.44487,2.06496 5.5291,1.57948 0.17052,-1.22772 0.66292,-2.06654 1.20631,-2.54069 -4.22021,-0.48045 -8.65656,-2.10964 -8.65656,-9.38999 0,-2.07439 0.74222,-3.76932 1.95766,-5.09993 -0.19728,-0.47885 -0.84763,-2.41105 0.18405,-5.02819 0,0 1.59553,-0.51064 5.22642,1.94759 1.5156,-0.42098 3.141,-0.63209 4.75572,-0.63935 1.6147,0.007 3.24137,0.21837 4.75982,0.63935 3.6265,-2.45823 5.21981,-1.94759 5.21981,-1.94759 1.0342,2.61714 0.38352,4.54934 0.18625,5.02819 1.21828,1.33061 1.95547,3.02554 1.95547,5.09993 0,7.29765 -4.44485,8.9045 -8.67577,9.37487 0.68151,0.58964 1.28874,1.74592 1.28874,3.51857 0,2.54194 -0.0221,4.58803 -0.0221,5.21414 0,0.50564 0.34203,1.09806 1.30512,0.91151 7.5453,-2.51519 12.98252,-9.63477 12.98252,-18.02673 -1e-5,-10.49373 -8.50684,-18.9999 -18.99993,-18.9999"
     style="fill:#191919;fill-opacity:1;fill-rule:evenodd;stroke:none;stroke-width:0.0314635"
     id="path108" /></svg>
