<?xml version="1.0" encoding="UTF-8" standalone="no"?>
<svg xmlns:dc="http://purl.org/dc/elements/1.1/" xmlns:cc="http://creativecommons.org/ns#" xmlns:rdf="http://www.w3.org/1999/02/22-rdf-syntax-ns#" xmlns:svg="http://www.w3.org/2000/svg" xmlns="http://www.w3.org/2000/svg" xmlns:sodipodi="http://sodipodi.sourceforge.net/DTD/sodipodi-0.dtd" xmlns:inkscape="http://www.inkscape.org/namespaces/inkscape" sodipodi:docname="github.svg" inkscape:version="1.0 (4035a4fb49, 2020-05-01)" id="svg211" version="1.1" viewBox="0 0 174.52324 41.554664" height="41.554665mm" width="174.52324mm">
  <defs id="defs205"/>
  <sodipodi:namedview inkscape:window-maximized="0" inkscape:window-y="52" inkscape:window-x="6" inkscape:window-height="1022" inkscape:window-width="1908" showgrid="false" inkscape:document-rotation="0" inkscape:current-layer="layer1" inkscape:document-units="mm" inkscape:cy="68.527915" inkscape:cx="147.10011" inkscape:zoom="0.98994949" inkscape:pageshadow="2" inkscape:pageopacity="0" borderopacity="1.0" bordercolor="#666666" pagecolor="#191919" id="base"/>
  <metadata id="metadata208">
    <rdf:RDF>
      <cc:Work rdf:about="">
        <dc:format>image/svg+xml</dc:format>
        <dc:type rdf:resource="http://purl.org/dc/dcmitype/StillImage"/>
        <dc:title/>
      </cc:Work>
    </rdf:RDF>
  </metadata>
  <g transform="translate(-34.15581,-103.6739)" id="layer1" inkscape:groupmode="layer" inkscape:label="Layer 1">
    <g transform="matrix(0.35277777,0,0,-0.35277777,43.546591,175.25121)" id="g66">
      <path d="m 177.281,151.013 h -30.267 c -0.781,0 -1.414,-0.634 -1.414,-1.415 V 134.8 c 0,-0.781 0.633,-1.417 1.414,-1.417 h 11.807 v -18.385 c 0,0 -2.651,-0.904 -9.981,-0.904 -8.647,0 -20.727,3.16 -20.727,29.723 0,26.57 12.579,30.065 24.388,30.065 10.223,0 14.626,-1.799 17.429,-2.667 0.881,-0.27 1.695,0.607 1.695,1.389 l 3.376,14.297 c 0,0.367 -0.124,0.806 -0.54,1.105 -1.138,0.812 -8.081,4.697 -25.621,4.697 -20.205,0 -40.932,-8.596 -40.932,-49.922 0,-41.326 23.73,-47.4841 43.727,-47.4841 16.557,0 26.601,7.0751 26.601,7.0751 0.414,0.229 0.459,0.808 0.459,1.072 v 46.154 c 0,0.781 -0.633,1.415 -1.414,1.415" style="fill:#ffffff;fill-opacity:1;fill-rule:nonzero;stroke:none;stroke-width:0.1" id="path16"/>
      <path d="m 333.265,187.751 c 0,0.788 -0.624,1.423 -1.406,1.423 h -17.042 c -0.778,0 -1.411,-0.635 -1.411,-1.423 0,-0.003 0.005,-32.934 0.005,-32.934 h -26.565 v 32.934 c 0,0.788 -0.626,1.423 -1.406,1.423 h -17.041 c -0.775,0 -1.408,-0.635 -1.408,-1.423 V 98.5742 c 0,-0.7871 0.633,-1.4262 1.408,-1.4262 h 17.041 c 0.78,0 1.406,0.6391 1.406,1.4262 v 38.1448 h 26.565 c 0,0 -0.047,-38.142 -0.047,-38.1448 0,-0.7871 0.632,-1.4262 1.412,-1.4262 h 17.082 c 0.781,0 1.405,0.6391 1.407,1.4262 v 89.1768" style="fill:#ffffff;fill-opacity:1;fill-rule:nonzero;stroke:none;stroke-width:0.1" id="path18"/>
      <path d="m 209.44,176.05 c 0,6.136 -4.919,11.095 -10.989,11.095 -6.064,0 -10.988,-4.959 -10.988,-11.095 0,-6.131 4.924,-11.104 10.988,-11.104 6.07,0 10.989,4.973 10.989,11.104" style="fill:#ffffff;fill-opacity:1;fill-rule:nonzero;stroke:none;stroke-width:0.1" id="path20"/>
      <path d="m 208.222,117.386 c 0,2.285 0,41.164 0,41.164 0,0.782 -0.631,1.421 -1.41,1.421 h -16.989 c -0.779,0 -1.476,-0.804 -1.476,-1.585 0,0 0,-49.534 0,-58.977 0,-1.7328 1.08,-2.2488 2.477,-2.2488 0,0 7.252,0 15.306,0 1.68,0 2.092,0.825 2.092,2.2769 0,3.1609 0,15.5449 0,17.9489" style="fill:#ffffff;fill-opacity:1;fill-rule:nonzero;stroke:none;stroke-width:0.1" id="path22"/>
      <path d="m 398.032,159.837 h -16.911 c -0.775,0 -1.407,-0.64 -1.407,-1.427 v -43.725 c 0,0 -4.297,-3.144 -10.395,-3.144 -6.097,0 -7.715,2.767 -7.715,8.737 0,5.979 0,38.132 0,38.132 0,0.787 -0.63,1.427 -1.407,1.427 h -17.164 c -0.774,0 -1.409,-0.64 -1.409,-1.427 0,0 0,-23.285 0,-41.018 0,-17.7361 9.884,-22.0748 23.481,-22.0748 11.156,0 20.15,6.1638 20.15,6.1638 0,0 0.428,-3.249 0.622,-3.633 0.193,-0.3839 0.698,-0.773 1.244,-0.773 l 10.919,0.0492 c 0.774,0 1.409,0.6399 1.409,1.4238 l -0.006,59.862 c 0,0.787 -0.631,1.427 -1.411,1.427" style="fill:#ffffff;fill-opacity:1;fill-rule:nonzero;stroke:none;stroke-width:0.1" id="path24"/>
      <path d="m 437.584,111.595 c -5.866,0.178 -9.845,2.841 -9.845,2.841 v 28.24 c 0,0 3.925,2.406 8.741,2.836 6.09,0.546 11.958,-1.294 11.958,-15.822 0,-15.319 -2.648,-18.342 -10.854,-18.095 z m 6.67,50.245 c -9.605,0 -16.138,-4.285 -16.138,-4.285 v 30.196 c 0,0.788 -0.63,1.423 -1.406,1.423 h -17.091 c -0.777,0 -1.408,-0.635 -1.408,-1.423 V 98.5742 c 0,-0.7871 0.631,-1.4262 1.41,-1.4262 0.002,0 11.854,0 11.858,0 0.534,0 0.938,0.275 1.237,0.7559 0.295,0.4801 0.72,4.1131 0.72,4.1131 0,0 6.988,-6.6229 20.217,-6.6229 15.532,0 24.439,7.8779 24.439,35.3659 0,27.488 -14.226,31.08 -23.838,31.08" style="fill:#ffffff;fill-opacity:1;fill-rule:nonzero;stroke:none;stroke-width:0.1" id="path26"/>
      <path d="m 257.202,159.979 h -12.784 c 0,0 -0.019,16.884 -0.019,16.888 0,0.64 -0.33,0.959 -1.069,0.959 h -17.42 c -0.678,0 -1.041,-0.298 -1.041,-0.949 v -17.452 c 0,0 -8.73,-2.108 -9.321,-2.277 -0.587,-0.171 -1.02,-0.713 -1.02,-1.36 v -10.967 c 0,-0.789 0.63,-1.425 1.409,-1.425 h 8.932 c 0,0 0,-11.47 0,-26.384 0,-19.5968 13.746,-21.5222 23.021,-21.5222 4.239,0 9.309,1.3622 10.146,1.6704 0.506,0.1867 0.8,0.7109 0.8,1.28 l 0.015,12.0638 c 0,0.786 -0.665,1.424 -1.413,1.424 -0.746,0 -2.651,-0.304 -4.613,-0.304 -6.28,0 -8.407,2.92 -8.407,6.699 0,3.777 -0.001,25.073 -0.001,25.073 h 12.785 c 0.779,0 1.41,0.636 1.41,1.425 v 13.737 c 0,0.787 -0.631,1.421 -1.41,1.421" style="fill:#ffffff;fill-opacity:1;fill-rule:nonzero;stroke:none;stroke-width:0.1" id="path28"/>
    </g>
    <g transform="translate(-15.558189,-2.6087542)" id="g394">
      <path d="m 71.017543,106.28265 c -11.76408,0 -21.303544,9.53735 -21.303544,21.30319 0,9.41246 6.104114,17.39794 14.568663,20.21494 1.064684,0.19717 1.455561,-0.46221 1.455561,-1.02489 0,-0.508 -0.01976,-2.18616 -0.02893,-3.96628 -5.926667,1.2887 -7.177264,-2.51354 -7.177264,-2.51354 -0.96908,-2.46239 -2.365375,-3.11714 -2.365375,-3.11714 -1.932869,-1.32221 0.145697,-1.29505 0.145697,-1.29505 2.139245,0.14993 3.265664,2.19534 3.265664,2.19534 1.900061,3.25684 4.983692,2.31528 6.199364,1.77094 0.191205,-1.37654 0.743303,-2.31704 1.35255,-2.84868 -4.731808,-0.53869 -9.705975,-2.36538 -9.705975,-10.5283 0,-2.32586 0.832203,-4.22628 2.194983,-5.71817 -0.221191,-0.53693 -0.950383,-2.70334 0.206375,-5.63775 0,0 1.788936,-0.57255 5.859992,2.1837 1.69933,-0.47202 3.52178,-0.70873 5.332236,-0.71685 1.810455,0.008 3.634316,0.24483 5.336823,0.71685 4.066116,-2.75625 5.852583,-2.1837 5.852583,-2.1837 1.159579,2.93441 0.430035,5.10082 0.208844,5.63775 1.365956,1.49189 2.192514,3.39231 2.192514,5.71817 0,8.18233 -4.983691,9.98396 -9.727495,10.51137 0.764117,0.6611 1.444979,1.95756 1.444979,3.94511 0,2.85009 -0.02469,5.14421 -0.02469,5.84623 0,0.56692 0.383471,1.23116 1.463323,1.022 8.459965,-2.8201 14.556317,-10.80276 14.556317,-20.21205 -1.1e-5,-11.76584 -9.538063,-21.30319 -21.303202,-21.30319" style="fill:#ffffff;fill-opacity:1;fill-rule:evenodd;stroke:none;stroke-width:0.0352777" id="path108"/>
      <path d="m 57.782732,136.86954 c -0.04692,0.10619 -0.21343,0.13758 -0.365125,0.0649 -0.154517,-0.0695 -0.2413,-0.21378 -0.191205,-0.31997 0.04586,-0.10901 0.212725,-0.13899 0.366888,-0.0667 0.15487,0.0698 0.243064,0.21554 0.189442,0.32173 v 0" style="fill:#ffffff;fill-opacity:1;fill-rule:nonzero;stroke:none;stroke-width:0.0352777" id="path110"/>
      <path d="m 58.645626,137.83192 c -0.1016,0.0942 -0.300213,0.0504 -0.434974,-0.0984 -0.139348,-0.14852 -0.165453,-0.34713 -0.06244,-0.44273 0.104775,-0.0942 0.297392,-0.0501 0.437091,0.0984 0.139348,0.15029 0.166512,0.34749 0.06032,0.44274 v 0" style="fill:#ffffff;fill-opacity:1;fill-rule:nonzero;stroke:none;stroke-width:0.0352777" id="path112"/>
      <path d="m 59.48559,139.05888 c -0.130527,0.0907 -0.343958,0.006 -0.475897,-0.1838 -0.130528,-0.18944 -0.130528,-0.41663 0.0028,-0.50764 0.132292,-0.091 0.342548,-0.009 0.47625,0.17885 0.130175,0.19227 0.130175,0.41981 -0.0032,0.51259 v 0" style="fill:#ffffff;fill-opacity:1;fill-rule:nonzero;stroke:none;stroke-width:0.0352777" id="path114"/>
      <path d="m 60.636351,140.24421 c -0.116769,0.12877 -0.365477,0.0942 -0.547511,-0.0815 -0.186266,-0.1718 -0.238125,-0.41557 -0.121002,-0.54433 0.11818,-0.12912 0.3683,-0.0928 0.551744,0.0815 0.184856,0.17145 0.2413,0.41698 0.116769,0.54433 v 0" style="fill:#ffffff;fill-opacity:1;fill-rule:nonzero;stroke:none;stroke-width:0.0352777" id="path116"/>
      <path d="m 62.223851,140.93248 c -0.0515,0.16687 -0.291041,0.24271 -0.532341,0.17181 -0.240947,-0.073 -0.398639,-0.26847 -0.349956,-0.4371 0.05009,-0.16792 0.290689,-0.24694 0.533753,-0.17109 0.240594,0.0727 0.398639,0.2667 0.348544,0.43638 v 0" style="fill:#ffffff;fill-opacity:1;fill-rule:nonzero;stroke:none;stroke-width:0.0352777" id="path118"/>
      <path d="m 63.967279,141.06019 c 0.006,0.17568 -0.198614,0.32138 -0.451908,0.3242 -0.254706,0.006 -0.460728,-0.13617 -0.46355,-0.30903 0,-0.17745 0.200025,-0.32174 0.45473,-0.32597 0.253295,-0.005 0.460728,0.13617 0.460728,0.3108 v 0" style="fill:#ffffff;fill-opacity:1;fill-rule:nonzero;stroke:none;stroke-width:0.0352777" id="path120"/>
      <path d="m 65.589704,140.78396 c 0.03034,0.17145 -0.145697,0.34749 -0.397228,0.39406 -0.247297,0.0455 -0.47625,-0.0603 -0.507647,-0.23037 -0.03069,-0.17568 0.14852,-0.35172 0.395464,-0.39723 0.251883,-0.0437 0.477308,0.0593 0.509411,0.23354 v 0" style="fill:#ffffff;fill-opacity:1;fill-rule:nonzero;stroke:none;stroke-width:0.0352777" id="path122"/>
    </g>
  </g>
</svg>