<?xml version="1.0" encoding="UTF-8" standalone="no"?>
<!-- Generator: Adobe Illustrator 15.1.0, SVG Export Plug-In . SVG Version: 6.00 Build 0)  -->

<svg
   version="1.1"
   x="0px"
   y="0px"
   width="770"
   height="500"
   viewBox="0 0 770 500"
   enable-background="new 0 0 622 452"
   xml:space="preserve"
   id="svg4593"
   inkscape:version="1.1.2 (0a00cf5339, 2022-02-04)"
   sodipodi:docname="github-repo-after-first-push.svg"
   xmlns:inkscape="http://www.inkscape.org/namespaces/inkscape"
   xmlns:sodipodi="http://sodipodi.sourceforge.net/DTD/sodipodi-0.dtd"
   xmlns:xlink="http://www.w3.org/1999/xlink"
   xmlns="http://www.w3.org/2000/svg"
   xmlns:svg="http://www.w3.org/2000/svg"
   xmlns:rdf="http://www.w3.org/1999/02/22-rdf-syntax-ns#"
   xmlns:cc="http://creativecommons.org/ns#"
   xmlns:dc="http://purl.org/dc/elements/1.1/"><metadata
   id="metadata4778"><rdf:RDF><cc:Work
       rdf:about=""><dc:format>image/svg+xml</dc:format><dc:type
         rdf:resource="http://purl.org/dc/dcmitype/StillImage" /></cc:Work></rdf:RDF></metadata><defs
   id="defs4776"><linearGradient
   y2="363.47269"
   x2="480.35739"
   y1="334.8721"
   x1="480.35739"
   gradientUnits="userSpaceOnUse"
   id="SVGID_1_"
   gradientTransform="translate(279.43586,-47.971822)"><stop
     id="stop4613"
     style="stop-color:#C4C4C4"
     offset="0.0982" /><stop
     id="stop4615"
     style="stop-color:#686868"
     offset="0.5326" /><stop
     id="stop4617"
     style="stop-color:#000000"
     offset="1" /></linearGradient><linearGradient
   inkscape:collect="always"
   xlink:href="#SVGID_3_"
   id="linearGradient5073"
   gradientUnits="userSpaceOnUse"
   x1="537.17682"
   y1="57.660198"
   x2="537.17682"
   y2="112.9126" /><linearGradient
   inkscape:collect="always"
   xlink:href="#SVGID_3_"
   id="linearGradient5457"
   gradientUnits="userSpaceOnUse"
   x1="537.17682"
   y1="57.660198"
   x2="537.17682"
   y2="112.9126" />




</defs><sodipodi:namedview
   pagecolor="#ffffff"
   bordercolor="#666666"
   borderopacity="1"
   objecttolerance="10"
   gridtolerance="10"
   guidetolerance="10"
   inkscape:pageopacity="0"
   inkscape:pageshadow="2"
   inkscape:window-width="1920"
   inkscape:window-height="1005"
   id="namedview4774"
   showgrid="false"
   showguides="true"
   fit-margin-top="0"
   fit-margin-left="0"
   fit-margin-right="0"
   fit-margin-bottom="0"
   inkscape:zoom="1.3030192"
   inkscape:cx="428.2362"
   inkscape:cy="222.17631"
   inkscape:window-x="0"
   inkscape:window-y="38"
   inkscape:window-maximized="1"
   inkscape:current-layer="g5357"
   inkscape:pagecheckerboard="0" /><text
   xml:space="preserve"
   style="font-style:normal;font-variant:normal;font-weight:normal;font-stretch:normal;line-height:0%;font-family:monospace;-inkscape-font-specification:Monospace;text-align:start;letter-spacing:0px;word-spacing:0px;writing-mode:lr-tb;text-anchor:start;fill:#000000;fill-opacity:1;stroke:none;stroke-width:1px;stroke-linecap:butt;stroke-linejoin:miter;stroke-opacity:1"
   x="722.67169"
   y="35.340919"
   id="text4930"><tspan
     sodipodi:role="line"
     id="tspan4932"
     x="722.67169"
     y="35.340919"
     style="font-size:12px;line-height:1.25;font-family:monospace"> </tspan></text>
<g
   id="g5357"
   transform="translate(-4.520231,-9)"><rect
     style="fill:#ffffff;stroke:#000000;stroke-miterlimit:10"
     id="rect4596"
     height="244"
     width="603.78497"
     stroke-miterlimit="10"
     y="12"
     x="7" /><path
     stroke-miterlimit="10"
     d="m 598,49.690523 c 0,-9.253932 -6.716,-16.756275 -15,-16.756275 H 198 c -8.284,0 -15,7.502343 -15,16.756275 V 236.24372 C 183,245.49766 189.716,253 198,253 h 385 c 8.284,0 15,-7.50234 15,-16.75628 z"
     id="path4656"
     inkscape:connector-curvature="0"
     style="fill:#b5b5b5;stroke:#ffffff;stroke-width:1.05692;stroke-miterlimit:10" /><rect
     x="197"
     y="59"
     width="425"
     height="70.268997"
     id="rect4658"
     style="fill:none" /><text
     id="text4660"
     style="line-height:0%"
     x="195"
     y="53.419899"><tspan
       x="195"
       y="53.419899"
       font-size="18"
       id="tspan4662"
       style="font-size:18px;font-family:Consolas">.git</tspan><tspan
       x="195"
       y="75.019897"
       font-size="10.8"
       id="tspan4664"
       style="font-size:9.5px;font-family:Consolas">origin git@github.com:&lt;your_username&gt;/coco_coding_homework.git</tspan></text><rect
     x="16"
     y="19"
     width="195.58501"
     height="24.448999"
     id="rect4666"
     style="fill:none" /><text
     font-size="13.5"
     id="text4668"
     style="font-size:13.5px;line-height:0%;font-family:Helvetica"
     x="16"
     y="28.707001">~/coco_coding_homework</text><g
     id="Layer_1"><g
       id="g4721"><rect
         x="24"
         y="85"
         width="100"
         height="128"
         id="rect4723"
         style="fill:#dcdee0" /><rect
         x="24"
         y="85"
         width="100"
         height="128"
         id="rect4725"
         style="fill:none;stroke:#85888d;stroke-width:2" /><line
         x1="37"
         y1="105"
         x2="111"
         y2="105"
         id="line4727"
         style="fill:none;stroke:#000000;stroke-width:2" /><line
         x1="37"
         y1="111"
         x2="111"
         y2="111"
         id="line4729"
         style="fill:none;stroke:#000000;stroke-width:2" /><line
         x1="37"
         y1="117"
         x2="111"
         y2="117"
         id="line4731"
         style="fill:none;stroke:#000000;stroke-width:2" /><line
         x1="37"
         y1="129"
         x2="111"
         y2="129"
         id="line4733"
         style="fill:none;stroke:#70bf41;stroke-width:2" /></g></g><rect
     style="fill:none"
     id="rect4742"
     height="14"
     width="52.743"
     y="146.069"
     x="164" /><g
     id="g5114"><g
   id="g4736"><rect
     x="150.871"
     y="136.76801"
     width="45.956001"
     height="30.604"
     id="rect4738"
     style="fill:#45beee" /><polygon
     points="193.467,181.695 234.02,151.163 193.467,121.571 "
     id="polygon4740"
     style="fill:#45beee" /></g><text
   y="154.34959"
   x="164"
   font-size="12"
   id="text4744"
   style="font-size:12px;line-height:0%;font-family:Consolas">git add</text>
</g><rect
     style="fill:none"
     id="rect4752"
     height="14"
     width="85.542"
     y="146.069"
     x="376.98001" /><rect
     x="381.25101"
     y="136.76801"
     width="45.956001"
     height="30.604"
     id="rect4748"
     style="fill:#45beee" /><polygon
     points="464.399,151.163 423.847,121.571 423.847,181.695 "
     id="polygon4750"
     style="fill:#45beee" /><text
     y="154.34959"
     x="386.7637"
     font-size="12"
     id="text4754"
     style="font-size:12px;line-height:0%;font-family:Consolas">git commit</text><path
     d="m 149.54646,330.16554 c -0.17733,0.40135 -0.80666,0.51999 -1.38,0.2453 -0.584,-0.26268 -0.912,-0.80799 -0.72266,-1.20934 0.17333,-0.41201 0.804,-0.52532 1.38666,-0.25209 0.58534,0.26381 0.91867,0.81463 0.716,1.21598 v 0"
     style="fill:#ffffff;fill-opacity:1;fill-rule:nonzero;stroke:none;stroke-width:0.133333"
     id="path110" /><path
     d="m 152.80779,333.80289 c -0.384,0.35603 -1.13466,0.19048 -1.64399,-0.37191 -0.52667,-0.56134 -0.62534,-1.31199 -0.236,-1.67331 0.396,-0.35603 1.124,-0.18935 1.652,0.37191 0.52667,0.56802 0.62934,1.31334 0.22798,1.67334 v 0"
     style="fill:#ffffff;fill-opacity:1;fill-rule:nonzero;stroke:none;stroke-width:0.133333"
     id="path112" /><path
     d="m 155.98246,338.44021 c -0.49333,0.34281 -1.3,0.0227 -1.79867,-0.69467 -0.49333,-0.716 -0.49333,-1.57467 0.0106,-1.91864 0.5,-0.34394 1.29467,-0.034 1.8,0.67597 0.492,0.72669 0.492,1.58668 -0.0121,1.93734 v 0"
     style="fill:#ffffff;fill-opacity:1;fill-rule:nonzero;stroke:none;stroke-width:0.133333"
     id="path114" /><path
     d="m 160.33179,342.9202 c -0.44133,0.48669 -1.38133,0.35603 -2.06933,-0.30803 -0.704,-0.64932 -0.9,-1.57066 -0.45733,-2.05731 0.44666,-0.48801 1.392,-0.35074 2.08533,0.30803 0.69867,0.648 0.912,1.57599 0.44133,2.05731 v 0"
     style="fill:#ffffff;fill-opacity:1;fill-rule:nonzero;stroke:none;stroke-width:0.133333"
     id="path116" /><path
     d="m 166.33179,345.52154 c -0.19464,0.63069 -1.09999,0.91733 -2.01199,0.64936 -0.91067,-0.27591 -1.50667,-1.01469 -1.32267,-1.65203 0.18931,-0.63466 1.09866,-0.93332 2.01733,-0.64664 0.90933,0.27477 1.50667,1.008 1.31733,1.64931 v 0"
     style="fill:#ffffff;fill-opacity:1;fill-rule:nonzero;stroke:none;stroke-width:0.133333"
     id="path118" /><path
     d="m 172.92113,346.00422 c 0.0227,0.66399 -0.75067,1.21467 -1.708,1.22532 -0.96267,0.0227 -1.74134,-0.51465 -1.752,-1.16798 0,-0.67068 0.756,-1.21603 1.71866,-1.23202 0.95734,-0.0189 1.74134,0.51466 1.74134,1.17468 v 0"
     style="fill:#ffffff;fill-opacity:1;fill-rule:nonzero;stroke:none;stroke-width:0.133333"
     id="path120" /><path
     d="m 179.05313,344.9602 c 0.11467,0.648 -0.55067,1.31335 -1.50134,1.48936 -0.93466,0.17197 -1.8,-0.2279 -1.91866,-0.87069 -0.116,-0.66398 0.56133,-1.32933 1.49466,-1.50134 0.952,-0.16516 1.804,0.22413 1.92534,0.88267 v 0"
     style="fill:#ffffff;fill-opacity:1;fill-rule:nonzero;stroke:none;stroke-width:0.133333"
     id="path122" /><rect
     style="fill:none"
     id="rect4766"
     height="17"
     width="147"
     y="206"
     x="229" /><g
     id="g5093"><g
   id="Layer_3"><g
     id="g4671"><linearGradient
       y2="179.23489"
       x2="303.49899"
       y1="123.9863"
       x1="303.49899"
       gradientUnits="userSpaceOnUse"
       id="SVGID_2_"><stop
         id="stop4674"
         style="stop-color:#C4C4C4"
         offset="0.0982" /><stop
         id="stop4676"
         style="stop-color:#686868"
         offset="0.5326" /><stop
         id="stop4678"
         style="stop-color:#000000"
         offset="1" /></linearGradient><path
       id="path4680"
       d="m 253.453,178.205 c 0,-9.264 22.404,-16.777 50.047,-16.777 27.643,0 50.045,7.514 50.045,16.777 v 1.029 c 0,0 0,-2.115 0,-3.117 0,-1.007 0,-35.745 0,-35.745 v 0.394 c 0,-9.27 -22.402,-16.78 -50.045,-16.78 -27.643,0 -50.047,7.51 -50.047,16.78 v -0.394 c 0,0 0,34.519 0,35.733 0,1.205 0,3.129 0,3.129 z"
       stroke-miterlimit="10"
       inkscape:connector-curvature="0"
       style="fill:url(#SVGID_2_);stroke:#231f20;stroke-miterlimit:10" /><g
       id="g4682"><path
         id="path4684"
         d="m 353.545,140.373 c 0,0 0,34.738 0,35.745 0,1.002 0.355,3.117 0.355,3.117 0,9.27 -22.758,16.779 -50.4,16.779 -27.642,0 -50.4,-7.51 -50.4,-16.779 0,0 0.354,-1.924 0.354,-3.129 0,-1.214 0,-35.733 0,-35.733 0,9.274 22.404,16.785 50.047,16.785 27.643,0 50.044,-7.511 50.044,-16.785 z"
         stroke-miterlimit="10"
         inkscape:connector-curvature="0"
         style="fill:#ffffff;stroke:#231f20;stroke-miterlimit:10" /></g></g><g
     id="g4686"><polygon
       id="polygon4688"
       points="341.719,134.965 282.411,134.965 269.235,149.459 328.542,149.459 "
       stroke-miterlimit="10"
       style="fill:#ffffff;stroke:#000000;stroke-miterlimit:10" /><line
       id="line4690"
       y2="140.894"
       x2="331.16501"
       y1="140.894"
       x1="282.41101"
       style="fill:none;stroke:#70bf41;stroke-width:2" /></g></g><text
   y="214.6279"
   x="269.47659"
   font-size="12"
   id="text4768"
   style="font-size:12px;line-height:0%;font-family:Helvetica">staging area</text>
</g><rect
     style="fill:none"
     id="rect4770"
     height="17"
     width="147"
     y="219"
     x="464.785" /><g
     id="g5075"
     transform="matrix(0.95267059,0,0,0.95744806,23.006532,25.798169)"><g
   id="Layer_4"><linearGradient
     y2="112.9126"
     x2="537.17682"
     y1="57.660198"
     x1="537.17682"
     gradientUnits="userSpaceOnUse"
     id="SVGID_3_"><stop
       id="stop4694"
       style="stop-color:#C4C4C4"
       offset="0.0982" /><stop
       id="stop4696"
       style="stop-color:#686868"
       offset="0.5326" /><stop
       id="stop4698"
       style="stop-color:#000000"
       offset="1" /></linearGradient><path
     id="path4700"
     d="m 487.13,111.882 c 0,-9.268 22.407,-16.781 50.047,-16.781 27.641,0 50.047,7.513 50.047,16.781 v 1.03 c 0,0 0,-2.118 0,-3.121 0,-1.003 0,-35.739 0,-35.739 v 0.388 c 0,-9.268 -22.406,-16.781 -50.047,-16.781 -27.64,0 -50.047,7.513 -50.047,16.781 v -0.388 c 0,0 0,34.519 0,35.728 0,1.209 0,3.132 0,3.132 z"
     stroke-miterlimit="10"
     inkscape:connector-curvature="0"
     style="fill:url(#linearGradient5457);stroke:#231f20;stroke-miterlimit:10" /><g
     id="g4702"><path
       id="path4704"
       d="m 587.021,151.283 c 0,0 0,34.738 0,35.74 0,1.002 0.354,3.121 0.354,3.121 0,9.268 -22.76,16.779 -50.4,16.779 -27.64,0 -50.399,-7.512 -50.399,-16.779 0,0 0.353,-1.924 0.353,-3.133 0,-1.209 0,-35.729 0,-35.729 0,9.268 22.407,16.781 50.047,16.781 27.638,0.001 50.045,-7.512 50.045,-16.78 z"
       stroke-miterlimit="10"
       inkscape:connector-curvature="0"
       style="fill:#ffffff;stroke:#231f20;stroke-miterlimit:10" /></g><g
     id="g4706"><path
       id="path4708"
       d="m 587.021,112.601 c 0,0 0,34.736 0,35.739 0,1.002 0.354,3.121 0.354,3.121 0,9.268 -22.76,16.779 -50.4,16.779 -27.64,0 -50.399,-7.512 -50.399,-16.779 0,0 0.353,-1.923 0.353,-3.132 0,-1.209 0,-35.728 0,-35.728 0,9.268 22.407,16.78 50.047,16.78 27.638,0 50.045,-7.512 50.045,-16.78 z"
       stroke-miterlimit="10"
       inkscape:connector-curvature="0"
       style="fill:#ffffff;stroke:#231f20;stroke-miterlimit:10" /></g><g
     id="g4710"><path
       id="path4712"
       d="m 587.021,73.628 c 0,0 0,34.737 0,35.739 0,1.002 0.354,3.12 0.354,3.12 0,9.269 -22.76,16.781 -50.4,16.781 -27.64,0 -50.399,-7.513 -50.399,-16.781 0,0 0.353,-1.922 0.353,-3.131 0,-1.209 0,-35.728 0,-35.728 0,9.268 22.407,16.78 50.047,16.78 27.638,0.001 50.045,-7.512 50.045,-16.78 z"
       stroke-miterlimit="10"
       inkscape:connector-curvature="0"
       style="fill:#ffffff;stroke:#231f20;stroke-miterlimit:10" /></g><g
     id="g4714"><polygon
       id="polygon4716"
       points="513.908,66.381 500.732,80.875 560.039,80.875 573.216,66.381 "
       stroke-miterlimit="10"
       style="fill:#ffffff;stroke:#000000;stroke-miterlimit:10" /><line
       id="line4718"
       y2="72.310997"
       x2="562.66199"
       y1="72.310997"
       x1="513.90802"
       style="fill:none;stroke:#70bf41;stroke-width:2" /></g></g><text
   y="227.6279"
   x="511.94141"
   font-size="12"
   id="text4772"
   style="font-size:12px;line-height:0%;font-family:Helvetica">repository</text>
</g><rect
     x="464.785"
     y="219"
     width="147"
     height="17"
     id="rect4977"
     style="fill:none" /><rect
     style="fill:#ffffff;stroke:#000000;stroke-miterlimit:10"
     id="rect4811"
     height="244"
     width="603.78497"
     stroke-miterlimit="10"
     y="262"
     x="157.54047" /><path
     style="fill:#b5b5b5;stroke:#ffffff;stroke-miterlimit:10"
     inkscape:connector-curvature="0"
     stroke-miterlimit="10"
     d="m 748.54046,313 c 0,-8.284 -6.716,-15 -15,-15 h -385 c -8.284,0 -15,6.716 -15,15 v 167 c 0,8.284 6.716,15 15,15 h 385 c 8.284,0 15,-6.716 15,-15 z"
     id="path4817" /><rect
     style="fill:none"
     x="347.54047"
     y="309"
     width="425"
     height="70.268997"
     id="rect4819" /><text
     y="321.41989"
     x="347.54047"
     id="text4821"
     style="line-height:0%"><tspan
       style="font-size:18px;font-family:Consolas"
       x="347.54047"
       y="321.41989"
       font-size="18"
       id="tspan4823">.git</tspan><tspan
       style="font-size:10.8px;font-family:Consolas"
       x="347.54047"
       y="343.0199"
       font-size="10.8"
       id="tspan4825" /></text><rect
     id="rect4827"
     height="24.448999"
     width="195.58501"
     y="269"
     x="166.54047"
     style="fill:none" /><text
     y="278.707"
     x="166.54047"
     id="text4829"
     font-size="13.5"
     style="font-size:13.5px;line-height:0%;font-family:Helvetica">https://github.com/&lt;your_username&gt;/coco_coding_homework.git</text><g
     transform="translate(150.54046,250)"
     id="g5055"><g
   id="g5023"><linearGradient
     y2="112.9126"
     x2="537.17682"
     y1="57.660198"
     x1="537.17682"
     gradientUnits="userSpaceOnUse"
     id="linearGradient5025"><stop
       id="stop5027"
       style="stop-color:#C4C4C4"
       offset="0.0982" /><stop
       id="stop5029"
       style="stop-color:#686868"
       offset="0.5326" /><stop
       id="stop5031"
       style="stop-color:#000000"
       offset="1" /></linearGradient><path
     inkscape:connector-curvature="0"
     style="fill:url(#linearGradient5073);stroke:#231f20;stroke-miterlimit:10"
     id="path5033"
     d="m 487.13,111.882 c 0,-9.268 22.407,-16.781 50.047,-16.781 27.641,0 50.047,7.513 50.047,16.781 v 1.03 c 0,0 0,-2.118 0,-3.121 0,-1.003 0,-35.739 0,-35.739 v 0.388 c 0,-9.268 -22.406,-16.781 -50.047,-16.781 -27.64,0 -50.047,7.513 -50.047,16.781 v -0.388 c 0,0 0,34.519 0,35.728 0,1.209 0,3.132 0,3.132 z"
     stroke-miterlimit="10" /><g
     id="g5035"><path
       style="fill:#ffffff;stroke:#231f20;stroke-miterlimit:10"
       inkscape:connector-curvature="0"
       id="path5037"
       d="m 587.021,151.283 c 0,0 0,34.738 0,35.74 0,1.002 0.354,3.121 0.354,3.121 0,9.268 -22.76,16.779 -50.4,16.779 -27.64,0 -50.399,-7.512 -50.399,-16.779 0,0 0.353,-1.924 0.353,-3.133 0,-1.209 0,-35.729 0,-35.729 0,9.268 22.407,16.781 50.047,16.781 27.638,0.001 50.045,-7.512 50.045,-16.78 z"
       stroke-miterlimit="10" /></g><g
     id="g5039"><path
       style="fill:#ffffff;stroke:#231f20;stroke-miterlimit:10"
       inkscape:connector-curvature="0"
       id="path5041"
       d="m 587.021,112.601 c 0,0 0,34.736 0,35.739 0,1.002 0.354,3.121 0.354,3.121 0,9.268 -22.76,16.779 -50.4,16.779 -27.64,0 -50.399,-7.512 -50.399,-16.779 0,0 0.353,-1.923 0.353,-3.132 0,-1.209 0,-35.728 0,-35.728 0,9.268 22.407,16.78 50.047,16.78 27.638,0 50.045,-7.512 50.045,-16.78 z"
       stroke-miterlimit="10" /></g><g
     id="g5043"><path
       style="fill:#ffffff;stroke:#231f20;stroke-miterlimit:10"
       inkscape:connector-curvature="0"
       id="path5045"
       d="m 587.021,73.628 c 0,0 0,34.737 0,35.739 0,1.002 0.354,3.12 0.354,3.12 0,9.269 -22.76,16.781 -50.4,16.781 -27.64,0 -50.399,-7.513 -50.399,-16.781 0,0 0.353,-1.922 0.353,-3.131 0,-1.209 0,-35.728 0,-35.728 0,9.268 22.407,16.78 50.047,16.78 27.638,0.001 50.045,-7.512 50.045,-16.78 z"
       stroke-miterlimit="10" /></g><g
     id="g5047"><polygon
       style="fill:#ffffff;stroke:#000000;stroke-miterlimit:10"
       id="polygon5049"
       points="513.908,66.381 500.732,80.875 560.039,80.875 573.216,66.381 "
       stroke-miterlimit="10" /><line
       style="fill:none;stroke:#70bf41;stroke-width:2"
       id="line5051"
       y2="72.310997"
       x2="562.66199"
       y1="72.310997"
       x1="513.90802" /></g></g><text
   y="227.6279"
   x="511.94141"
   font-size="12"
   id="text5053"
   style="font-size:12px;line-height:0%;font-family:Helvetica">repository</text>
</g><rect
     x="348.31833"
     y="243.21378"
     transform="rotate(11.343641)"
     width="165.5479"
     height="14.000498"
     id="rect4762"
     style="fill:none" /><g
     id="g5317"
     transform="translate(53.968319)"><rect
   style="fill:#45beee"
   id="rect5294"
   height="30.604004"
   width="122.71094"
   y="16.864315"
   x="277.02808"
   transform="rotate(90)" /><rect
   x="-47.468319"
   y="369.13501"
   width="99.924324"
   height="30.604004"
   id="rect5124"
   style="fill:#45beee" /><polygon
   transform="translate(-374.75101,232.367)"
   points="423.847,181.695 464.399,151.163 423.847,121.571 "
   id="polygon5126"
   style="fill:#45beee" /><text
   style="font-size:12px;line-height:0%;font-family:Consolas"
   id="text5128"
   font-size="12"
   x="-33.987309"
   y="386.71658">git push origin</text>
</g><path
     d="m 186.48568,287.33287 c -10.49215,0 -19.00021,8.50617 -19.00021,18.9999 0,8.3948 5.44415,15.51689 12.99351,18.02931 0.94958,0.17586 1.29819,-0.41223 1.29819,-0.91409 0,-0.45306 -0.0177,-1.94978 -0.0258,-3.53745 -5.28588,1.14938 -6.40126,-2.24176 -6.40126,-2.24176 -0.86431,-2.19617 -2.10964,-2.78012 -2.10964,-2.78012 -1.72389,-1.17927 0.12986,-1.15502 0.12986,-1.15502 1.90795,0.13371 2.91258,1.95797 2.91258,1.95797 1.69464,2.90471 4.44487,2.06496 5.5291,1.57948 0.17052,-1.22772 0.66292,-2.06654 1.20631,-2.54069 -4.22021,-0.48045 -8.65656,-2.10964 -8.65656,-9.38999 0,-2.07439 0.74222,-3.76932 1.95766,-5.09993 -0.19728,-0.47885 -0.84763,-2.41105 0.18405,-5.02819 0,0 1.59553,-0.51064 5.22642,1.94759 1.5156,-0.42098 3.141,-0.63209 4.75572,-0.63935 1.6147,0.007 3.24137,0.21837 4.75982,0.63935 3.6265,-2.45823 5.21981,-1.94759 5.21981,-1.94759 1.0342,2.61714 0.38352,4.54934 0.18625,5.02819 1.21828,1.33061 1.95547,3.02554 1.95547,5.09993 0,7.29765 -4.44485,8.9045 -8.67577,9.37487 0.68151,0.58964 1.28874,1.74592 1.28874,3.51857 0,2.54194 -0.0221,4.58803 -0.0221,5.21414 0,0.50564 0.34203,1.09806 1.30512,0.91151 7.5453,-2.51519 12.98252,-9.63477 12.98252,-18.02673 -1e-5,-10.49373 -8.50684,-18.9999 -18.99993,-18.9999"
     style="fill:#191919;fill-opacity:1;fill-rule:evenodd;stroke:none;stroke-width:0.0314635"
     id="path108" /><path
     d="m 24.61262,42.237696 h 22.800381 v 15.200251 h 3.80006 V 41.287681 c 0,-1.566334 -1.283711,-2.850045 -2.850044,-2.850045 H 23.662605 c -1.566334,0 -2.850045,1.283711 -2.850045,2.850045 v 16.150266 h 3.80006 z m 29.450487,17.04685 H 17.962515 c -0.519535,0 -0.950015,0.43047 -0.950015,0.950014 v 0.950016 c 0,2.092996 1.707064,3.80006 3.80006,3.80006 h 30.400501 c 2.093006,0 3.80006,-1.707064 3.80006,-3.80006 V 60.23456 c 0,-0.469074 -0.427499,-0.950014 -0.950014,-0.950014 z"
     id="path2"
     style="stroke-width:0.059376" /></g></svg>
